<svg width="212" height="24" viewBox="0 0 212 24" fill="none" xmlns="http://www.w3.org/2000/svg">
<path d="M31.36 1.344L25.12 23.68H19.84L15.648 7.776L11.264 23.68L6.016 23.712L0 1.344H4.8L8.736 18.688L13.28 1.344H18.272L22.56 18.592L26.528 1.344H31.36Z" fill="white"/>
<path d="M50.7653 14.432C50.7653 15.072 50.7226 15.648 50.6373 16.16H37.6772C37.7839 17.44 38.2319 18.4427 39.0213 19.168C39.8106 19.8933 40.7812 20.256 41.9333 20.256C43.5972 20.256 44.7813 19.5413 45.4853 18.112H50.3173C49.8053 19.8187 48.8239 21.2267 47.3732 22.336C45.9226 23.424 44.1413 23.968 42.0293 23.968C40.3226 23.968 38.7866 23.5947 37.4212 22.848C36.0772 22.08 35.0213 21.0027 34.2533 19.616C33.5066 18.2293 33.1333 16.6293 33.1333 14.816C33.1333 12.9813 33.5066 11.3707 34.2533 9.984C34.9999 8.59733 36.0453 7.53067 37.3893 6.784C38.7333 6.03733 40.2799 5.664 42.0293 5.664C43.7146 5.664 45.2186 6.02667 46.5413 6.752C47.8853 7.47733 48.9199 8.512 49.6453 9.856C50.3919 11.1787 50.7653 12.704 50.7653 14.432ZM46.1253 13.152C46.1039 12 45.6879 11.0827 44.8773 10.4C44.0666 9.696 43.0746 9.344 41.9012 9.344C40.7919 9.344 39.8533 9.68533 39.0853 10.368C38.3386 11.0293 37.8799 11.9573 37.7093 13.152H46.1253Z" fill="white"/>
<path d="M58.5153 8.544C59.0913 7.69067 59.8806 6.99733 60.8833 6.464C61.9073 5.93067 63.0699 5.664 64.3713 5.664C65.8859 5.664 67.2513 6.03733 68.4673 6.784C69.7046 7.53067 70.6752 8.59733 71.3792 9.984C72.1046 11.3493 72.4673 12.9387 72.4673 14.752C72.4673 16.5653 72.1046 18.176 71.3792 19.584C70.6752 20.9707 69.7046 22.048 68.4673 22.816C67.2513 23.584 65.8859 23.968 64.3713 23.968C63.0486 23.968 61.8859 23.712 60.8833 23.2C59.9019 22.6667 59.1126 21.984 58.5153 21.152V23.68H54.0353V0H58.5153V8.544ZM67.8913 14.752C67.8913 13.6853 67.6673 12.768 67.2193 12C66.7926 11.2107 66.2166 10.6133 65.4912 10.208C64.7872 9.80267 64.0193 9.6 63.1873 9.6C62.3766 9.6 61.6086 9.81333 60.8833 10.24C60.1793 10.6453 59.6033 11.2427 59.1553 12.032C58.7286 12.8213 58.5153 13.7493 58.5153 14.816C58.5153 15.8827 58.7286 16.8107 59.1553 17.6C59.6033 18.3893 60.1793 18.9973 60.8833 19.424C61.6086 19.8293 62.3766 20.032 63.1873 20.032C64.0193 20.032 64.7872 19.8187 65.4912 19.392C66.2166 18.9653 66.7926 18.3573 67.2193 17.568C67.6673 16.7787 67.8913 15.84 67.8913 14.752Z" fill="white"/>
<path d="M100.299 5.952L95.1148 23.68H90.2828L87.0508 11.296L83.8187 23.68H78.9548L73.7387 5.952H78.2828L81.4187 19.456L84.8108 5.952H89.5468L92.8747 19.424L96.0107 5.952H100.299Z" fill="white"/>
<path d="M110.595 23.968C108.888 23.968 107.352 23.5947 105.987 22.848C104.621 22.08 103.544 21.0027 102.755 19.616C101.987 18.2293 101.603 16.6293 101.603 14.816C101.603 13.0027 101.997 11.4027 102.787 10.016C103.597 8.62933 104.696 7.56267 106.083 6.816C107.469 6.048 109.016 5.664 110.723 5.664C112.429 5.664 113.976 6.048 115.363 6.816C116.749 7.56267 117.837 8.62933 118.627 10.016C119.437 11.4027 119.843 13.0027 119.843 14.816C119.843 16.6293 119.427 18.2293 118.595 19.616C117.784 21.0027 116.675 22.08 115.267 22.848C113.88 23.5947 112.323 23.968 110.595 23.968ZM110.595 20.064C111.405 20.064 112.163 19.872 112.867 19.488C113.592 19.0827 114.168 18.4853 114.595 17.696C115.021 16.9067 115.235 15.9467 115.235 14.816C115.235 13.1307 114.787 11.84 113.891 10.944C113.016 10.0267 111.939 9.568 110.659 9.568C109.379 9.568 108.301 10.0267 107.427 10.944C106.573 11.84 106.147 13.1307 106.147 14.816C106.147 16.5013 106.563 17.8027 107.395 18.72C108.248 19.616 109.315 20.064 110.595 20.064Z" fill="white"/>
<path d="M145.145 5.696C147.321 5.696 149.07 6.368 150.393 7.712C151.737 9.03467 152.409 10.8907 152.409 13.28V23.68H147.929V13.888C147.929 12.5013 147.577 11.4453 146.873 10.72C146.169 9.97333 145.209 9.6 143.993 9.6C142.777 9.6 141.806 9.97333 141.081 10.72C140.377 11.4453 140.025 12.5013 140.025 13.888V23.68H135.545V13.888C135.545 12.5013 135.193 11.4453 134.489 10.72C133.785 9.97333 132.825 9.6 131.609 9.6C130.372 9.6 129.39 9.97333 128.665 10.72C127.961 11.4453 127.609 12.5013 127.609 13.888V23.68H123.129V5.952H127.609V8.096C128.185 7.34933 128.921 6.76267 129.817 6.336C130.734 5.90933 131.737 5.696 132.825 5.696C134.212 5.696 135.449 5.99467 136.537 6.592C137.625 7.168 138.468 8 139.065 9.088C139.641 8.064 140.473 7.24267 141.561 6.624C142.67 6.00533 143.865 5.696 145.145 5.696Z" fill="white"/>
<path d="M173.14 14.432C173.14 15.072 173.098 15.648 173.012 16.16H160.052C160.159 17.44 160.607 18.4427 161.396 19.168C162.186 19.8933 163.156 20.256 164.308 20.256C165.972 20.256 167.156 19.5413 167.86 18.112H172.692C172.18 19.8187 171.199 21.2267 169.748 22.336C168.298 23.424 166.516 23.968 164.404 23.968C162.698 23.968 161.162 23.5947 159.796 22.848C158.452 22.08 157.396 21.0027 156.628 19.616C155.882 18.2293 155.508 16.6293 155.508 14.816C155.508 12.9813 155.882 11.3707 156.628 9.984C157.375 8.59733 158.42 7.53067 159.764 6.784C161.108 6.03733 162.655 5.664 164.404 5.664C166.09 5.664 167.594 6.02667 168.916 6.752C170.26 7.47733 171.295 8.512 172.02 9.856C172.767 11.1787 173.14 12.704 173.14 14.432ZM168.5 13.152C168.479 12 168.063 11.0827 167.252 10.4C166.442 9.696 165.45 9.344 164.276 9.344C163.167 9.344 162.228 9.68533 161.46 10.368C160.714 11.0293 160.255 11.9573 160.084 13.152H168.5Z" fill="white"/>
<path d="M186.234 5.696C188.346 5.696 190.053 6.368 191.354 7.712C192.656 9.03467 193.306 10.8907 193.306 13.28V23.68H188.826V13.888C188.826 12.48 188.474 11.4027 187.77 10.656C187.066 9.888 186.106 9.504 184.89 9.504C183.653 9.504 182.672 9.888 181.946 10.656C181.242 11.4027 180.89 12.48 180.89 13.888V23.68H176.41V5.952H180.89V8.16C181.488 7.392 182.245 6.79467 183.162 6.368C184.101 5.92 185.125 5.696 186.234 5.696Z" fill="white"/>
<path d="M204.35 23.968C202.9 23.968 201.599 23.712 200.447 23.2C199.295 22.6667 198.377 21.952 197.695 21.056C197.033 20.16 196.671 19.168 196.607 18.08H201.118C201.204 18.7627 201.535 19.328 202.111 19.776C202.708 20.224 203.444 20.448 204.318 20.448C205.172 20.448 205.833 20.2773 206.303 19.936C206.793 19.5947 207.038 19.1573 207.038 18.624C207.038 18.048 206.74 17.6213 206.143 17.344C205.567 17.0453 204.639 16.7253 203.359 16.384C202.036 16.064 200.948 15.7333 200.094 15.392C199.262 15.0507 198.537 14.528 197.919 13.824C197.321 13.12 197.023 12.1707 197.023 10.976C197.023 9.99467 197.3 9.09867 197.855 8.288C198.431 7.47733 199.241 6.83733 200.286 6.368C201.353 5.89867 202.601 5.664 204.031 5.664C206.143 5.664 207.828 6.19733 209.087 7.264C210.345 8.30933 211.039 9.728 211.167 11.52H206.878C206.814 10.816 206.516 10.2613 205.982 9.856C205.47 9.42933 204.777 9.216 203.902 9.216C203.092 9.216 202.462 9.36533 202.014 9.664C201.588 9.96267 201.374 10.3787 201.374 10.912C201.374 11.5093 201.673 11.968 202.27 12.288C202.868 12.5867 203.796 12.896 205.055 13.216C206.335 13.536 207.391 13.8667 208.223 14.208C209.055 14.5493 209.769 15.0827 210.367 15.808C210.985 16.512 211.305 17.4507 211.327 18.624C211.327 19.648 211.038 20.5653 210.462 21.376C209.908 22.1867 209.097 22.8267 208.031 23.296C206.985 23.744 205.758 23.968 204.35 23.968Z" fill="white"/>
</svg>
